<?xml version="1.0" standalone="no"?>
<!DOCTYPE svg PUBLIC "-//W3C//DTD SVG 20010904//EN"
 "http://www.w3.org/TR/2001/REC-SVG-20010904/DTD/svg10.dtd">
<svg version="1.0" xmlns="http://www.w3.org/2000/svg"
 width="1600.000000pt" height="1600.000000pt" viewBox="0 0 1600.000000 1600.000000"
 preserveAspectRatio="xMidYMid meet">
<metadata>
Created by potrace 1.11, written by Peter Selinger 2001-2013
</metadata>
<g transform="translate(0.000000,1600.000000) scale(0.100000,-0.100000)"
fill="#000000" stroke="none">
<path d="M7645 14949 c-1146 -61 -2244 -396 -3220 -982 -495 -297 -914 -625
-1335 -1047 -354 -353 -629 -688 -885 -1075 -635 -961 -1012 -2025 -1126
-3171 -26 -268 -37 -832 -20 -1084 61 -911 267 -1725 635 -2519 303 -654 748
-1311 1232 -1821 65 -69 125 -133 134 -143 36 -43 358 -336 485 -443 1060
-885 2365 -1438 3725 -1578 573 -59 1234 -44 1779 39 1000 154 1939 515 2779
1069 1380 910 2403 2297 2857 3877 204 710 299 1491 267 2191 -33 722 -138
1296 -352 1939 -324 974 -858 1862 -1560 2594 -580 604 -1205 1067 -1936 1433
-1060 530 -2277 784 -3459 721z m835 -439 c1386 -108 2659 -626 3715 -1510
1261 -1057 2082 -2565 2280 -4185 40 -326 49 -482 49 -825 -1 -618 -76 -1166
-240 -1750 -640 -2288 -2496 -4061 -4809 -4594 -291 -67 -581 -113 -940 -148
-175 -17 -896 -17 -1065 0 -389 40 -661 83 -943 148 -1624 378 -3040 1362
-3962 2754 -498 751 -828 1572 -984 2447 -65 367 -91 639 -98 1038 -10 589 43
1089 173 1635 447 1869 1704 3454 3427 4316 827 415 1716 644 2662 688 131 6
590 -3 735 -14z"/>
<path d="M7254 13223 c-37 -71 -108 -207 -159 -303 -51 -96 -163 -310 -250
-475 -87 -165 -201 -383 -255 -485 -54 -102 -215 -408 -358 -680 -690 -1316
-892 -1700 -987 -1880 -57 -107 -286 -544 -510 -970 -224 -426 -453 -863 -510
-970 -57 -107 -151 -286 -209 -398 -58 -111 -171 -325 -250 -475 -79 -149
-201 -382 -271 -517 -70 -135 -136 -260 -147 -278 l-20 -32 777 2 776 3 183
340 c100 187 308 574 461 860 153 286 360 673 460 860 221 413 581 1085 838
1565 104 195 274 513 377 705 103 193 290 541 415 775 125 234 277 518 339
632 l111 208 3 -940 2 -940 540 0 540 0 0 1760 0 1760 -914 0 -915 0 -67 -127z"/>
<path d="M3597 9567 c-8 -22 -9 -304 -1 -669 l7 -338 456 0 456 0 84 163 c46
89 105 203 131 252 26 50 107 206 179 348 l132 257 -719 0 c-592 0 -721 -2
-725 -13z"/>
<path d="M6929 9067 l-286 -514 600 -6 c330 -4 1102 -7 1716 -7 1236 0 1178 3
1311 -66 132 -69 224 -165 296 -309 122 -247 123 -556 1 -800 -95 -191 -228
-306 -414 -357 -69 -18 -113 -21 -395 -25 l-318 -5 0 -588 0 -588 328 -5 c374
-6 453 -17 582 -82 107 -53 228 -178 292 -300 147 -283 156 -614 24 -890 -103
-216 -261 -350 -480 -405 -73 -19 -112 -20 -538 -20 l-460 0 8 2095 7 2095
-536 0 -537 0 0 -2660 0 -2661 1113 3 c1099 4 1113 4 1222 26 352 70 657 247
882 514 249 294 408 671 479 1133 24 156 24 536 0 700 -39 268 -108 501 -211
712 -68 140 -176 307 -253 393 l-49 54 56 91 c284 465 367 1127 216 1724 -36
144 -79 260 -146 396 -222 454 -555 729 -1014 838 -90 21 -97 21 -1650 24
l-1561 3 -285 -513z"/>
</g>
</svg>
